<svg id="Capa_1" enable-background="new 0 0 507.434 507.434" height="512" viewBox="0 0 507.434 507.434" width="512" xmlns="http://www.w3.org/2000/svg"><g><g><path d="m468.27 99.201 8.215 23.098c.352.989 1.048 1.772 1.926 2.168l20.521 9.246c2.899 1.306 2.899 5.925 0 7.232l-20.521 9.246c-.879.396-1.575 1.18-1.926 2.169l-8.215 23.098c-1.16 3.263-5.264 3.263-6.425 0l-8.214-23.098c-.352-.989-1.048-1.773-1.927-2.169l-20.521-9.246c-2.899-1.306-2.899-5.925 0-7.232l20.521-9.246c.879-.396 1.575-1.179 1.927-2.168l8.214-23.098c1.16-3.263 5.264-3.263 6.425 0z"/><path d="m62.791 28.22 6.093 17.133c.261.734.777 1.315 1.429 1.608l15.222 6.858c2.151.969 2.151 4.395 0 5.364l-15.222 6.858c-.652.294-1.168.875-1.429 1.609l-6.093 17.133c-.861 2.421-3.905 2.421-4.766 0l-6.093-17.133c-.261-.734-.777-1.315-1.429-1.609l-15.223-6.857c-2.15-.969-2.15-4.395 0-5.364l15.222-6.858c.652-.294 1.168-.875 1.429-1.608l6.093-17.133c.861-2.422 3.906-2.422 4.767-.001z"/><circle cx="312.746" cy="31.19" r="12.187"/><path d="m401.611 73.968c0 5.228-4.238 9.466-9.466 9.466s-9.466-4.238-9.466-9.466 4.238-9.466 9.466-9.466 9.466 4.238 9.466 9.466z"/></g><g><path d="m473.251 419.636h-18.041v-42.775c25.756-4.807 52.225-30.535 52.225-115.966 0-5.522-4.478-10-10-10h-104.449c-5.523 0-10 4.477-10 10 0 85.431 26.468 111.159 52.224 115.966v17.377c-1.592-3.064-3.827-5.797-6.686-8.086-17.855-14.296-39.423-1.492-56.755 8.793-9.064 5.38-18.438 10.942-25.967 12.358-14.179 2.672-30.921-3.314-41.555-8.758 14.661-4.964 32.837-13.652 44.663-24.65 18.125-16.858 28.534-37.987 30.104-61.104 2.016-29.701-13.901-57.506-41.734-73.349-3.506-7.729-13.019-27.825-24.024-43.781 1.786-3.151 2.477-6.871 1.842-10.684-1.091-6.543-5.775-11.579-12.224-13.142-4.548-1.102-8.948-2.826-13.105-5.09 1.463-3.803 2.616-7.864 3.374-12.225 3.016-17.318-3.754-34.332-8.058-42.932-2.652-5.298-12.17-22.735-23.328-24.68-11.164-1.945-26.011 11.251-30.297 15.342-3.593 3.429-8.558 8.759-12.941 15.486-.772-8.896-3.951-17.306-9.545-25.134-1.107-13.213-5.198-28.903-13.07-50.223-1.814-5.867-7.441-9.737-13.619-9.29-6.253.456-11.287 5.196-12.156 11.356-4.253 23.423-6.514 43.832-6.887 62.148-14.369-3.102-26.348-1.018-35.736 6.3-12.4 9.664-17.256 26.622-18.734 42.97-2.882-1.276-5.529-2.279-7.725-3.025-5.657-1.924-24.842-7.692-34.203-1.195-9.362 6.497-10.669 26.488-10.847 32.46-.063 2.121-.055 4.677.089 7.502-12.241 14.023-12.264 35.244-11.091 47.099-14.157 6.854-40.917 26.419-44.649 77.232-2.602 35.433 9.948 56.852 20.934 68.58 4.2 4.484 8.471 7.922 12.305 10.514-6.876 8.795-13.961 22.853-11.286 41.761 4.632 32.735 40.509 49.92 42.034 50.635 5.684 2.314 13.435.716 15.736-5.66 11.993-32.296 30.726-58.935 54.243-77.17 3.482-1.747 5.676-5.398 5.502-9.374l-.009-.212c-.107-2.45-1.105-4.729-2.739-6.449-9.549-13.882-16.328-29.34-22.528-51.292-.017-.06-.034-.118-.052-.178l-15.272-50.492c-4.403-15.653-4.053-32.053 1.013-47.431 1.488-4.516-.41-9.455-4.539-11.812-4.539-2.593-8.715-6.608-12.413-11.935-9.914-14.286-7.802-39.241-4.695-46.864 8.26-.281 32.346 6.509 42.256 20.789.423.61.854 1.268 1.354 2.066 2.889 4.608 8.931 6.064 13.6 3.275 6.129-3.659 12.742-6.505 19.655-8.458l.837-.236c.293 4.52 1.023 9.173 2.219 13.96.087.594.192 1.247.346 1.842 2.799 11.542 17.45 15.51 31.215 15.509 3.443-.001 6.682-.231 10.07-.71.23.199.451.406.685.601 11.119 9.261 24.911 14.099 39.113 14.099 6.665 0 13.419-1.065 20.03-3.24 7.014-2.306 19.6-9.08 37.448-20.136 12.223 18.02 22.822 42.393 22.933 42.65.912 2.109 2.523 3.842 4.561 4.902 22.611 11.771 35.699 33.215 34.154 55.965-1.235 18.205-9.232 34.292-23.77 47.814-12.521 11.646-36.481 21.147-48.965 23.529-6.33 1.289-12.171 6.955-9.96 13.796 8.48 28.154 13.689 64.323 13.652 81.689-.012 5.522 4.456 10.01 9.978 10.022h.022c5.443 0 9.867-4.353 9.989-9.773 9.683 2.879 20.103 4.523 30.676 4.523 14.157-.001 28.566-2.908 41.75-9.594 12.917-6.55 29.29-19.315 40.922-33.806h49.897c5.522 0 10-4.478 10-10 .004-5.522-4.474-9.999-9.996-9.999zm-394.122-179.442c-4.24 17.045-3.962 34.848.862 51.928.017.06.034.118.052.178l15.273 50.497c5.902 20.875 12.389 36.57 21.047 50.621-21.37 18.193-38.801 42.606-51.064 71.442-8.42-5.648-21.152-16.411-23.198-30.871-2.978-21.043 13.176-32.815 13.805-33.264 3.139-2.164 4.774-5.925 4.216-9.696s-3.212-6.897-6.843-8.06c-.37-.118-36.889-12.437-32.987-65.566 3.847-52.386 36.078-62.023 38.116-62.58 5.297-1.19 8.478-6.37 7.407-11.699-.812-4.042-1.676-11.743-1.044-19.577.649 1.109 1.329 2.207 2.073 3.279 3.673 5.289 7.787 9.764 12.285 13.368zm179.093-132.988c5.957 5.605 18.149 27.043 15.218 43.885-.116.669-.261 1.308-.4 1.954-.737-.87-1.462-1.755-2.155-2.672-2.922-3.863-6.421-7.281-10.4-10.158-8.004-5.786-17.324-8.782-26.686-9.113 6.848-11.787 18.792-21.447 24.423-23.896zm-72.633-31.72c1.89 7.282 3.3 14.635 3.625 21.247.002.044.01.086.013.13.012.198.035.396.059.594l-5.878 4.125c.337-8.196 1.054-16.858 2.181-26.096zm-4.474 43.614c.485-.662.913-1.366 1.243-2.119l12.739-8.941c3.483 6.393 4.427 13.07 2.953 20.6-.103.525-.15 1.048-.169 1.566l-18.76 13.078c-2.945-11.39-2.295-18.599 1.994-24.184zm-31.104 47.883c-5.67 1.602-11.182 3.688-16.466 6.23-1.642-1.854-3.396-3.554-5.206-5.137.025-15.531 2.51-32.44 11.471-39.413 4.253-3.31 10.227-4.245 17.833-2.836-1.181 10.027 1.206 20.114 3.912 28.705.133.422.298.825.48 1.216-1.408 2.849-2.55 5.792-3.455 8.816zm21.993-4.26c1.986-1.237 26.379-18.238 26.379-18.238-.458.438-.913.881-1.357 1.341-9.228 9.553-14.059 21.981-13.72 35.13l-14.51 9.351c-1.545-10.193-.491-19.301 3.208-27.584zm1.06 39.109 12.331-7.947c1.222 4.014 2.953 7.854 5.148 11.42-7.878.082-14.147-1.398-17.479-3.473zm83.149 14.824c-16.74 5.503-34.578 2.26-47.714-8.681-7.819-6.512-12.619-16.078-13.169-26.244-.558-10.307 3.109-20.098 10.327-27.568 7.088-7.337 16.71-11.115 26.385-11.115 7.488 0 15.01 2.264 21.412 6.892 3.013 2.178 5.656 4.759 7.858 7.672 9.851 13.027 23.606 22.221 38.734 25.886 2.48.602 3.074 2.615 3.214 3.453.14.841.232 2.943-1.926 4.322-21.95 14.018-37.975 23.033-45.121 25.383zm117.174 238.947c-20.533 10.412-45.435 8.992-64.727 1.371-1.213-11.179-3.211-24.094-5.886-37.076 13.552 5.764 30.808 10.052 46.726 7.061 8.076-1.519 16.107-5.418 23.983-9.861l19.829 24.879c-6.267 5.385-13.146 10.188-19.925 13.626zm44.614-48.258c-.734 7.104-7.076 16.983-15.958 26.334l-18.094-22.702c15.238-8.978 25.784-14.251 32.075-9.213 1.141.914 2.328 2.173 1.977 5.581zm-14.881-136.451h84.181c-.245 8.967-.832 17.303-1.749 25.005h-80.684c-.916-7.701-1.503-16.038-1.748-25.005zm8.393 56.064c-1.952-5.668-3.566-12.037-4.851-19.059h77.097c-1.285 7.022-2.899 13.39-4.851 19.059-10.607 30.807-27.987 30.807-33.698 30.807s-23.091 0-33.697-30.807z"/><path d="m250.336 179.843c-2.699 0-5.388-1.085-7.36-3.227-6.672-7.248-13.9-7.618-13.988-7.618 0 0 0 0-.001 0-.045.001-.092.001-.138.001-5.46 0-9.922-4.389-9.996-9.865-.075-5.522 4.342-10.059 9.864-10.134 1.6-.045 16.191.185 28.973 14.071 3.74 4.064 3.479 10.39-.585 14.13-1.921 1.768-4.348 2.642-6.769 2.642z"/><path d="m190.062 327.784c-23.373 0-42.388-19.015-42.388-42.387 0-23.373 19.015-42.388 42.388-42.388 23.372 0 42.388 19.015 42.388 42.388 0 23.372-19.015 42.387-42.388 42.387zm0-72.774c-16.756 0-30.388 13.632-30.388 30.388 0 16.755 13.632 30.387 30.388 30.387s30.388-13.632 30.388-30.387c0-16.757-13.632-30.388-30.388-30.388z"/><path d="m173.129 343.24c0 3.819 3.096 6.915 6.915 6.915s6.915-3.096 6.915-6.915-3.096-6.915-6.915-6.915c-3.819.001-6.915 3.096-6.915 6.915z"/><circle cx="180.044" cy="363.787" r="6.915"/><path d="m266.834 317.059c-1.011 0-2.035-.256-2.976-.794-2.876-1.646-3.872-5.312-2.226-8.188 3.349-5.849 9.606-9.395 16.347-9.23 5.624.13 10.8 2.779 14.2 7.268 2.001 2.642 1.482 6.404-1.159 8.405-2.643 2.002-6.405 1.481-8.405-1.159-1.178-1.555-2.969-2.472-4.913-2.518-2.368-.051-4.496 1.171-5.655 3.197-1.109 1.935-3.132 3.019-5.213 3.019z"/><path d="m286.649 262.86c-2.868 0-5.404-2.064-5.906-4.985-.562-3.266 1.632-6.368 4.897-6.929l19.882-3.414c3.27-.567 6.367 1.632 6.929 4.897.561 3.266-1.632 6.368-4.898 6.929l-19.882 3.414c-.343.06-.685.088-1.022.088z"/><path d="m184.003 294.514c-2.366 0-4.608-1.409-5.558-3.735-1.251-3.068.221-6.57 3.289-7.822l18.678-7.62c3.068-1.254 6.57.221 7.822 3.289 1.251 3.068-.221 6.57-3.289 7.822l-18.678 7.62c-.742.302-1.509.446-2.264.446z"/></g></g></svg>