<svg id="Capa_1" enable-background="new 0 0 512 512" height="512" viewBox="0 0 512 512" width="512" xmlns="http://www.w3.org/2000/svg"><g><g><g><path d="m438.308 320.273c-5.732-38.462-23.66-74.102-50.926-101.764 4.219-5.122 7.858-11.218 10.725-18.202 7.6-18.514 4.225-39.175 1.537-49.843-1.64-6.507-7.886-28.107-19.401-32.835-11.514-4.726-31.137 6.254-36.875 9.732-9.408 5.702-26.327 18.032-33.928 36.545-.951 2.316-1.771 4.621-2.473 6.912-1.377-.393-2.757-.782-4.143-1.143.171-13.498-2.937-25.76-9.296-36.623 3.35-20.452.263-37.03-9.195-49.379-1.731-21.46-6.043-45.333-13.163-72.851-1.358-6.303-6.916-10.822-13.41-10.822-.003 0-.007 0-.01 0-6.435.004-11.946 4.446-13.363 10.657-7.085 24.615-10.361 42.521-10.466 57.371-7.855 12.767-10.343 26.414-7.45 40.657-6.499 12.678-8.867 26.1-7.063 40.006-4.292 7.029-5.974 14.131-6.536 20.269-1.643.4-3.278.829-4.908 1.274-.747-2.548-1.64-5.114-2.699-7.693-7.533-18.349-24.295-30.565-33.616-36.215-5.69-3.448-25.145-14.336-36.586-9.638-11.441 4.697-17.635 26.112-19.26 32.564-2.663 10.569-6.007 31.04 1.525 49.389 2.773 6.754 6.264 12.677 10.344 17.712-28.478 27.954-47.2 64.452-53.082 103.92-1.322 8.87 1.289 17.628 7.354 24.663 5.252 6.093 12.528 10.227 20.673 11.898l7.657 94.359c1.926 34.108 33.78 60.807 72.589 60.807h146.411c38.651 0 70.496-26.581 72.574-60.541l8.311-94.603c8.193-1.655 15.517-5.797 20.795-11.92 6.064-7.035 8.676-15.794 7.354-24.663zm-110.24-148.72c5.048-12.298 16.969-21.35 23.626-25.651 9.091-5.875 17.164-8.659 20.727-9.22 2.141 2.902 5.929 10.555 8.27 21.123 1.715 7.738 3.837 22.555-1.212 34.854-1.953 4.757-4.319 8.867-6.996 12.294-14.132-11.503-29.809-20.742-46.469-27.544.561-1.922 1.24-3.875 2.054-5.856zm-74.012-100.099c.01-.199.018-.398.016-.597-.001-.045.005-.089.003-.135-.226-9.231 1.305-19.841 3.449-30.044 2.757 13.094 4.738 25.23 5.979 36.596l-9.451-5.646c.003-.057.001-.116.004-.174zm-5.187 11.152 17.031 10.174c.104.172.218.337.332.502.059.086.112.174.174.258.193.263.396.518.613.761.001.002.002.003.004.005s.003.004.005.006.003.004.005.006c6.372 7.151 8.762 17.289 7.267 30.819l-27.161-16.108c-.02-.18-.033-.361-.063-.54-.015-.088-.04-.176-.057-.264-.046-.241-.094-.481-.158-.717-.004-.013-.005-.026-.009-.04-2.427-8.88-1.792-16.921 2.017-24.862zm-5.814 38.048 30.508 18.092c.025.064.047.129.074.193.067.16.146.314.221.47.067.14.126.282.2.419.156.292.326.575.51.849.003.005.005.01.008.014 6.175 9.195 8.812 19.774 7.992 32.147l-42.647-23.241c-.01-.066-.026-.131-.037-.197-.012-.074-.016-.148-.031-.223-1.895-10.016-.842-19.401 3.202-28.523zm-7.452 40.35 43.814 23.877c-4.315 2.625-15.197 5.522-28.872 3.903-11.404-1.35-16.9-5.135-17.358-6.9-.032-.428-.069-.884-.109-1.365-.421-5.114-1.007-12.434 2.525-19.515zm-100.848-4.408c2.299-10.392 6.017-17.942 8.135-20.842 3.545.576 11.496 3.336 20.432 9.115 11.343 7.335 19.623 16.327 23.314 25.32.894 2.177 1.625 4.32 2.211 6.425-16.462 6.503-31.986 15.383-46.054 26.451-2.633-3.387-4.934-7.432-6.838-12.071-3.69-8.993-4.117-21.209-1.2-34.398zm48.108 335.268c-28.165 0-51.222-18.403-52.491-41.897-.005-.09-.011-.181-.018-.271l-7.468-92.028h78.504l5.878 134.196zm113.402 0h-76.903l-5.878-134.196h88.659zm85.512-42.027c-.009.097-.016.195-.022.293-1.369 23.402-24.422 41.734-52.482 41.734h-20.915l5.878-134.196h75.638zm33.925-118.048c-3.099 3.596-8.21 5.742-13.671 5.742h-291.164c-5.461 0-10.572-2.146-13.671-5.742-1.542-1.789-3.259-4.723-2.69-8.548 9.722-65.228 58.375-117.275 120.003-133.837 4.833 12.16 21.048 19.835 43.221 19.961.183.001.364.001.547.001 21.794-.001 37.646-7.481 42.006-19.443 60.729 17.111 108.486 68.759 118.108 133.317.57 3.826-1.148 6.76-2.689 8.549z" fill="white"/><path d="m192.969 326.662c-4.891 0-9.781-1.862-13.505-5.585l-23.921-23.921c-3.607-3.607-5.594-8.404-5.594-13.505s1.987-9.897 5.594-13.505c3.607-3.607 8.403-5.594 13.505-5.594 5.101 0 9.898 1.987 13.505 5.594l23.921 23.921c7.446 7.447 7.446 19.563 0 27.01-3.724 3.723-8.614 5.585-13.505 5.585zm9.233-9.856h.01zm-33.154-40.168c-1.797 0-3.594.684-4.961 2.052-1.325 1.325-2.055 3.087-2.055 4.961 0 1.875.73 3.636 2.055 4.962l23.921 23.921c2.736 2.736 7.189 2.735 9.923 0 2.735-2.736 2.735-7.187 0-9.923l-23.921-23.921c-1.368-1.368-3.165-2.052-4.962-2.052z" fill="white"/><path d="m246.577 298.133c-6.266 0-12.408-3.072-16.061-8.711h.001c-2.774-4.281-3.714-9.387-2.647-14.376s4.012-9.263 8.295-12.037l28.394-18.39c4.282-2.773 9.389-3.713 14.376-2.646 4.989 1.067 9.263 4.013 12.037 8.295 5.724 8.838 3.191 20.687-5.648 26.411l-28.395 18.391c-3.2 2.072-6.796 3.063-10.352 3.063zm28.351-44.503c-1.339 0-2.65.385-3.801 1.13l-28.394 18.39c-1.574 1.019-2.656 2.589-3.047 4.422-.392 1.833-.047 3.708.972 5.281h.001c2.104 3.248 6.456 4.178 9.703 2.075l28.395-18.39c3.247-2.103 4.178-6.456 2.075-9.703-1.019-1.574-2.589-2.656-4.422-3.048-.494-.105-.99-.157-1.482-.157z" fill="white"/><path d="m340.42 315.859c-2.507 0-5.053-.497-7.499-1.545 0 0 0 0-.001 0-4.688-2.011-8.313-5.726-10.207-10.463s-1.83-9.928.181-14.617l13.331-31.092c2.01-4.688 5.726-8.314 10.463-10.208 4.736-1.894 9.928-1.829 14.617.18 4.688 2.01 8.313 5.726 10.207 10.463s1.83 9.928-.18 14.617l-13.331 31.092c-3.102 7.233-10.169 11.573-17.581 11.573zm-2.738-12.649c1.723.739 3.631.762 5.369.066 1.74-.696 3.105-2.027 3.844-3.75l13.331-31.092c.739-1.723.762-3.63.066-5.37s-2.027-3.105-3.75-3.844-3.63-.763-5.37-.066c-1.74.696-3.105 2.027-3.844 3.75l-13.331 31.092c-1.525 3.556.128 7.689 3.685 9.214z" fill="white"/><path d="m144.189 259.609c-2.066 0-4.152-.634-5.946-1.95-4.484-3.288-5.453-9.589-2.165-14.073 6.605-9.006 18.94-20.274 27.497-25.117 4.84-2.739 10.983-1.036 13.721 3.803 2.739 4.839 1.036 10.983-3.803 13.721-6.153 3.483-16.247 12.778-21.178 19.501-1.971 2.69-5.028 4.115-8.126 4.115z" fill="white"/><path d="m190.892 224.046c-4.242 0-8.187-2.702-9.571-6.953-1.722-5.287 1.169-10.969 6.455-12.691 1.806-.589 3.609-1.083 5.359-1.469 5.431-1.201 10.804 2.229 12.004 7.658 1.201 5.429-2.228 10.804-7.658 12.004-1.115.247-2.283.568-3.47.954-1.035.336-2.086.497-3.119.497z" fill="white"/></g></g><path d="m60.317 43.616 8.655 24.336c.371 1.042 1.104 1.868 2.03 2.285l21.622 9.741c3.055 1.376 3.055 6.243 0 7.619l-21.622 9.742c-.926.417-1.659 1.243-2.03 2.285l-8.655 24.336c-1.223 3.438-5.547 3.438-6.77 0l-8.655-24.336c-.371-1.042-1.104-1.868-2.03-2.285l-21.622-9.742c-3.055-1.376-3.055-6.243 0-7.619l21.622-9.741c.926-.417 1.659-1.243 2.03-2.285l8.655-24.336c1.223-3.438 5.547-3.438 6.77 0z" fill="white"/><path d="m467.386 106.809 6.42 18.052c.275.773.819 1.385 1.506 1.695l16.038 7.226c2.266 1.021 2.266 4.631 0 5.652l-16.038 7.226c-.687.309-1.231.922-1.506 1.695l-6.42 18.052c-.907 2.55-4.115 2.55-5.021 0l-6.42-18.052c-.275-.773-.819-1.385-1.506-1.695l-16.039-7.226c-2.266-1.021-2.266-4.631 0-5.652l16.039-7.226c.687-.309 1.231-.922 1.506-1.695l6.42-18.052c.907-2.55 4.114-2.55 5.021 0z" fill="white"/><circle cx="166.275" cy="67.05" r="8.152" fill="white"/><circle cx="375.653" cy="52.927" r="14.293" fill="white"/></g></svg>
