<svg id="Layer_1" enable-background="new 0 0 512 512" height="512" viewBox="0 0 512 512" width="512" xmlns="http://www.w3.org/2000/svg"><g id="XMLID_1269_"><g id="XMLID_1199_"><path id="XMLID_1220_" d="m191.5 212h-131c-5.522 0-10 4.478-10 10s4.478 10 10 10h131c5.522 0 10-4.478 10-10s-4.478-10-10-10z"/><path id="XMLID_1777_" d="m275.5 252c16.542 0 30-13.458 30-30s-13.458-30-30-30-30 13.458-30 30 13.458 30 30 30zm0-40c5.514 0 10 4.486 10 10s-4.486 10-10 10-10-4.486-10-10 4.486-10 10-10z"/><path id="XMLID_1778_" d="m60.5 104h131c5.522 0 10-4.478 10-10s-4.478-10-10-10h-131c-5.522 0-10 4.478-10 10s4.478 10 10 10z"/><path id="XMLID_1784_" d="m275.5 124c16.542 0 30-13.458 30-30s-13.458-30-30-30-30 13.458-30 30 13.458 30 30 30zm0-40c5.514 0 10 4.486 10 10s-4.486 10-10 10-10-4.486-10-10 4.486-10 10-10z"/><path id="XMLID_1789_" d="m363.5 124c16.542 0 30-13.458 30-30s-13.458-30-30-30-30 13.458-30 30 13.458 30 30 30zm0-40c5.514 0 10 4.486 10 10s-4.486 10-10 10-10-4.486-10-10 4.486-10 10-10z"/><path id="XMLID_1792_" d="m489.528 319.302c-12.573-12.736-28.797-20.621-46.336-22.66-1.213-4.614-2.792-9.059-4.689-13.314 3.55-5.003 5.497-11.016 5.497-17.328v-88c0-7.678-2.902-14.688-7.664-20 4.761-5.312 7.664-12.322 7.664-20v-88c0-16.542-13.458-30-30-30h-384c-16.542 0-30 13.458-30 30v88c0 7.678 2.902 14.688 7.664 20-4.762 5.312-7.664 12.322-7.664 20v88c0 7.678 2.902 14.688 7.664 20-4.762 5.312-7.664 12.322-7.664 20v88c0 16.542 13.458 30 30 30h143.036c10.514 16.798 29.173 28 50.408 28h82.246l24.027 35.595c1.858 2.755 4.965 4.405 8.288 4.405s6.43-1.65 8.288-4.405l24.026-35.595h63.734c42.98 0 77.947-34.967 77.947-77.946 0-20.629-7.98-40.074-22.472-54.752zm-469.528-269.302c0-5.514 4.486-10 10-10h384c5.514 0 10 4.486 10 10v88c0 5.514-4.486 10-10 10h-147c-5.522 0-10 4.478-10 10s4.478 10 10 10h147c5.514 0 10 4.486 10 10v82.941c-9.407-10.525-21.312-18.665-34.737-23.592 2.687-4.494 4.237-9.743 4.237-15.349 0-16.542-13.458-30-30-30s-30 13.458-30 30c0 4.649 1.063 9.054 2.958 12.985-17.945 4.819-33.968 15.299-45.66 30.15-6.597-1.915-13.428-2.882-20.397-2.882-15.895 0-30.611 5.108-42.626 13.747h-197.775c-5.514 0-10-4.486-10-10v-88c0-5.514 4.486-10 10-10h147c5.522 0 10-4.478 10-10s-4.478-10-10-10h-147c-5.514 0-10-4.486-10-10zm343.5 182c-5.514 0-10-4.486-10-10s4.486-10 10-10 10 4.486 10 10-4.486 10-10 10zm-333.5 172c-5.514 0-10-4.486-10-10v-88c0-5.514 4.486-10 10-10h178.79c-7.324 11.396-11.593 24.934-11.593 39.458 0 1.239.032 2.482.095 3.726-.539.263-1.071.538-1.6.816h-135.192c-5.522 0-10 4.478-10 10s4.478 10 10 10h113.199c-6.179 9.443-9.69 20.676-9.69 32.564 0 3.912.39 7.733 1.115 11.436zm308.005 60.126-30.203-44.745h3.809c5.522 0 10-4.478 10-10v-70.006h32.788v70.006c0 5.522 4.478 10 10 10h3.81zm96.049-32.126h-50.235l11.491-17.024c2.069-3.065 2.278-7.022.542-10.288-1.735-3.266-5.132-5.307-8.83-5.307h-12.624v-70.006c0-5.522-4.478-10-10-10h-52.788c-5.522 0-10 4.478-10 10v70.006h-12.624c-3.698 0-7.095 2.041-8.83 5.307-1.736 3.266-1.527 7.223.542 10.288l11.492 17.024h-68.746c-21.745 0-39.436-17.69-39.436-39.436 0-17.08 10.899-32.136 27.122-37.464 4.671-1.535 7.534-6.237 6.752-11.092-.456-2.825-.687-5.702-.687-8.551 0-29.338 23.868-53.205 53.205-53.205 7.041 0 13.882 1.354 20.331 4.023 4.452 1.846 9.579.252 12.206-3.783 12.432-19.093 33.431-30.492 56.173-30.492 32.831 0 60.605 23.458 66.04 55.778.801 4.764 4.893 8.274 9.723 8.341 31.5.436 57.127 26.425 57.127 57.935 0 31.952-25.994 57.946-57.946 57.946z"/><path id="XMLID_1797_" d="m222 168c2.63 0 5.21-1.07 7.069-2.931 1.861-1.859 2.931-4.439 2.931-7.069s-1.07-5.21-2.931-7.07c-1.859-1.86-4.439-2.93-7.069-2.93s-5.21 1.069-7.07 2.93-2.93 4.44-2.93 7.07 1.069 5.21 2.93 7.069c1.86 1.861 4.44 2.931 7.07 2.931z"/></g></g></svg>