<svg id="Capa_1" enable-background="new 0 0 512.001 512.001" height="512" viewBox="0 0 512.001 512.001" width="512" xmlns="http://www.w3.org/2000/svg"><g id="XMLID_37_"><g id="XMLID_16_"><path id="XMLID_1129_" d="m162.436 226.898v129.53l90.88-38.65z" fill="#ffc144"/></g><g id="XMLID_496_"><path id="XMLID_1058_" d="m162.437 226.899-99.537-99.537 438-117.361-117.361 438-169.153-169.153z" fill="#ffe6b4"/></g><g id="XMLID_2689_"><path id="XMLID_481_" d="m162.436 226.898v129.53l3.558-4.605 48.392-72.975 286.514-268.847z" fill="#ffcd69"/></g><g id="XMLID_1130_"><path id="XMLID_1219_" d="m507.972 2.929c-2.526-2.525-6.206-3.514-9.659-2.588l-438 117.362c-3.451.925-6.146 3.62-7.071 7.071s.062 7.133 2.588 9.66l96.607 96.607v125.388c0 3.356 1.684 6.489 4.483 8.341 1.661 1.099 3.583 1.659 5.518 1.659 1.325 0 2.656-.263 3.913-.798l84.667-36.008 125.45 125.45c1.9 1.9 4.454 2.929 7.072 2.929.862 0 1.731-.111 2.587-.341 3.451-.925 6.146-3.62 7.071-7.071l47.031-175.523c1.43-5.335-1.736-10.818-7.071-12.247-5.338-1.429-10.817 1.737-12.247 7.071l-42.549 158.793-149.605-149.608 253.404-237.779-37.953 141.645c-1.43 5.335 1.736 10.818 7.071 12.248 5.339 1.433 10.817-1.737 12.247-7.071l47.033-175.53c.925-3.451-.061-7.133-2.587-9.66zm-300.429 268.627c-.564.529-1.064 1.122-1.491 1.766l-33.615 50.692v-91.647l242.447-155.368zm233.741-235.229-277.467 177.809-81.598-81.597zm-251.398 297.56 26.075-39.321 19.808 19.808z"/><path id="XMLID_1279_" d="m93.133 492.001h-16c-5.522 0-10 4.477-10 10s4.478 10 10 10h16c5.522 0 10-4.477 10-10s-4.478-10-10-10z"/><path id="XMLID_1280_" d="m81.381 404.503c-2.264-5.037-8.182-7.287-13.222-5.021l-14.593 6.56c-5.037 2.264-7.284 8.184-5.021 13.221 1.666 3.707 5.311 5.902 9.127 5.902 1.37 0 2.764-.283 4.095-.882l14.593-6.56c5.037-2.264 7.284-8.183 5.021-13.22z"/><path id="XMLID_1281_" d="m136.105 379.9c-2.266-5.036-8.182-7.286-13.222-5.02l-14.593 6.56c-5.037 2.265-7.284 8.184-5.021 13.221 1.667 3.706 5.311 5.902 9.127 5.902 1.37 0 2.764-.283 4.095-.882l14.593-6.561c5.038-2.263 7.286-8.183 5.021-13.22z"/><path id="XMLID_1289_" d="m20.543 452.889c1.324-3.792 3.372-7.217 6.087-10.181 3.729-4.073 3.452-10.398-.621-14.128-4.074-3.731-10.399-3.452-14.129.621-4.557 4.976-7.994 10.727-10.218 17.094-1.821 5.214.929 10.917 6.144 12.738 1.091.381 2.203.562 3.297.562 4.133 0 8-2.583 9.44-6.706z"/><path id="XMLID_1290_" d="m37.268 489.859c-3.711-1.506-7.029-3.722-9.863-6.586-3.885-3.926-10.216-3.96-14.142-.076s-3.96 10.216-.075 14.142c4.751 4.803 10.323 8.521 16.561 11.052 1.231.5 2.504.736 3.756.736 3.951 0 7.693-2.357 9.271-6.243 2.075-5.117-.39-10.948-5.508-13.025z"/><path id="XMLID_1292_" d="m153.133 492.001h-16c-5.522 0-10 4.477-10 10s4.478 10 10 10h16c5.522 0 10-4.477 10-10s-4.478-10-10-10z"/><path id="XMLID_1293_" d="m273.133 492.001h-16c-5.522 0-10 4.477-10 10s4.478 10 10 10h16c5.523 0 10-4.477 10-10s-4.478-10-10-10z"/><path id="XMLID_1294_" d="m213.133 492.001h-16c-5.522 0-10 4.477-10 10s4.478 10 10 10h16c5.522 0 10-4.477 10-10s-4.478-10-10-10z"/><path id="XMLID_1302_" d="m442.22 219.001c-2.63 0-5.21 1.07-7.069 2.93-1.86 1.86-2.931 4.44-2.931 7.07s1.07 5.21 2.931 7.07c1.859 1.86 4.44 2.93 7.069 2.93 2.631 0 5.211-1.07 7.07-2.93 1.86-1.86 2.93-4.44 2.93-7.07s-1.069-5.21-2.93-7.07c-1.859-1.861-4.439-2.93-7.07-2.93z"/></g></g></svg>