<svg id="Layer_1" enable-background="new 0 0 512.042 512.042" height="512" viewBox="0 0 512.042 512.042" width="512" xmlns="http://www.w3.org/2000/svg"><g id="XMLID_1166_"><path id="XMLID_1032_" d="m16.652 402.13 196.976-341.172c18.841-32.634 65.945-32.634 84.786 0l196.976 341.172c18.841 32.634-4.71 73.427-42.393 73.427h-393.952c-37.682 0-61.234-40.793-42.393-73.427z" fill="#ff7d97"/><g id="XMLID_1003_"><path id="XMLID_1030_" d="m57.398 427.557h397.246l-198.623-344.026z" fill="#ffcd69"/></g><g id="XMLID_1063_" fill="#fff"><path id="XMLID_1061_" d="m256.021 387.557c-13.255 0-24-10.745-24-24 0-13.255 10.745-24 24-24 13.255 0 24 10.745 24 24 0 13.254-10.745 24-24 24z"/><path id="XMLID_1060_" d="m256.021 299.557c-13.255 0-24-10.745-24-24v-54c0-13.255 10.745-24 24-24 13.255 0 24 10.745 24 24v54c0 13.254-10.745 24-24 24z"/></g><g id="XMLID_77_"><path id="XMLID_78_" d="m504.05 397.13-196.976-341.172c-10.656-18.457-29.741-29.476-51.053-29.476s-40.397 11.019-51.053 29.476l-196.976 341.172c-10.656 18.457-10.656 40.495 0 58.951 10.656 18.457 29.741 29.476 51.053 29.476h151.976c5.523 0 10-4.477 10-10s-4.477-10-10-10h-151.976c-14.082 0-26.692-7.281-33.733-19.476s-7.041-26.756 0-38.951l196.976-341.172c7.041-12.195 19.651-19.476 33.733-19.476s26.692 7.281 33.733 19.476l196.975 341.172c7.041 12.195 7.041 26.756 0 38.951s-19.651 19.476-33.733 19.476h-151.975c-5.523 0-10 4.477-10 10s4.477 10 10 10h151.976c21.312 0 40.397-11.019 51.053-29.476 10.656-18.456 10.656-40.495 0-58.951z"/><path id="XMLID_752_" d="m463.304 432.557c1.787-3.094 1.787-6.906 0-10l-198.623-344.026c-1.786-3.094-5.087-5-8.66-5s-6.874 1.906-8.66 5l-198.623 344.026c-1.787 3.094-1.787 6.906 0 10 1.786 3.094 5.087 5 8.66 5h397.246c3.573 0 6.874-1.906 8.66-5zm-388.586-15 181.303-314.025 181.303 314.025z"/><path id="XMLID_755_" d="m256.021 329.557c-18.748 0-34 15.252-34 34s15.252 34 34 34 34-15.252 34-34-15.252-34-34-34zm0 48c-7.72 0-14-6.28-14-14s6.28-14 14-14 14 6.28 14 14-6.28 14-14 14z"/><path id="XMLID_758_" d="m222.021 221.557v54c0 18.748 15.252 34 34 34s34-15.252 34-34v-54c0-18.748-15.252-34-34-34s-34 15.252-34 34zm48 0v54c0 7.72-6.28 14-14 14s-14-6.28-14-14v-54c0-7.72 6.28-14 14-14s14 6.28 14 14z"/><path id="XMLID_759_" d="m256.021 465.56c-2.63 0-5.21 1.07-7.07 2.93s-2.93 4.43-2.93 7.07c0 2.63 1.07 5.21 2.93 7.07s4.44 2.93 7.07 2.93 5.21-1.07 7.07-2.93 2.93-4.44 2.93-7.07c0-2.64-1.07-5.21-2.93-7.07-1.86-1.861-4.44-2.93-7.07-2.93z"/></g></g></svg>