<svg id="Layer_1" enable-background="new 0 0 512 512" height="512" viewBox="0 0 512 512" width="512" xmlns="http://www.w3.org/2000/svg"><g id="XMLID_1466_"><g id="XMLID_1487_"><path id="XMLID_460_" d="m256 512c-13.23 0-25.67-5.152-35.025-14.508l-71.414-71.414c-3.905-3.905-3.905-10.237 0-14.143 3.906-3.904 10.236-3.904 14.143 0l71.414 71.414c11.514 11.516 30.252 11.516 41.766 0l206.466-206.466c11.516-11.515 11.516-30.251 0-41.766l-206.467-206.467c-11.514-11.516-30.252-11.516-41.766 0l-206.467 206.467c-11.516 11.515-11.516 30.251 0 41.766l71.414 71.413c3.905 3.905 3.905 10.237 0 14.143-3.906 3.904-10.236 3.904-14.143 0l-71.414-71.413c-9.355-9.356-14.507-21.796-14.507-35.026s5.152-25.67 14.508-35.025l206.467-206.467c9.355-9.356 21.795-14.508 35.025-14.508s25.67 5.152 35.025 14.508l206.467 206.467c9.356 9.355 14.508 21.795 14.508 35.025s-5.152 25.67-14.508 35.025l-206.467 206.467c-9.355 9.356-21.795 14.508-35.025 14.508z"/></g><g id="XMLID_1471_"><g id="XMLID_1485_"><path id="XMLID_461_" d="m256 460.492c-2.56 0-5.118-.977-7.071-2.929l-194.492-194.492c-3.905-3.905-3.905-10.237 0-14.143l194.492-194.491c3.906-3.904 10.236-3.904 14.143 0l194.492 194.492c3.905 3.905 3.905 10.237 0 14.143l-194.493 194.491c-1.953 1.953-4.511 2.929-7.071 2.929zm-180.35-204.492 180.35 180.35 180.35-180.35-180.35-180.35z"/></g></g><g id="XMLID_1470_"><path id="XMLID_459_" d="m124.81 397.189c-2.63 0-5.21-1.069-7.069-2.93-1.86-1.86-2.931-4.44-2.931-7.07 0-2.64 1.07-5.21 2.931-7.069 1.859-1.87 4.439-2.931 7.069-2.931s5.21 1.061 7.07 2.931c1.86 1.859 2.93 4.43 2.93 7.069 0 2.63-1.069 5.21-2.93 7.07s-4.441 2.93-7.07 2.93z"/></g><g id="XMLID_1468_"><path id="XMLID_450_" d="m334.5 324.25h-44c-5.522 0-10-4.478-10-10v-80.448c0-14.337-11.663-26-26-26-10.664 0-19.884 6.5-23.879 15.747h9.879c3.554 0 6.841 1.886 8.634 4.954s1.823 6.857.079 9.954l-44 78.104c-1.772 3.146-5.103 5.092-8.713 5.092s-6.94-1.946-8.713-5.092l-44-78.104c-1.744-3.097-1.714-6.886.079-9.954s5.08-4.954 8.634-4.954h12.588c5.114-44.795 43.313-79.747 89.412-79.747 49.626 0 90 40.374 90 90v80.448c0 5.522-4.478 10-10 10zm-34-20h24v-70.448c0-38.598-31.401-70-70-70-38.475 0-69.874 31.303-69.993 69.778-.018 5.511-4.489 9.969-10 9.969h-4.896l26.889 47.73 26.889-47.73h-4.882c-2.664 0-5.218-1.063-7.096-2.953-1.877-1.891-2.923-4.452-2.904-7.116.175-25.187 20.807-45.678 45.993-45.678 25.364 0 46 20.636 46 46z"/></g></g></svg>