<svg id="Capa_1" enable-background="new 0 0 512.001 512.001" height="512" viewBox="0 0 512.001 512.001" width="512" xmlns="http://www.w3.org/2000/svg"><g><g clip-rule="evenodd" fill-rule="evenodd"><path d="m264.184 70c27.999 0 55.18 6.246 79.724 17.877 16.902 8.009 32.619 18.609 46.556 31.514l-34.128 20.803c-6.433 3.917-5.349 14.077 2.088 16.741l106.219 38.11c5.402 2.023 11.205-1.394 11.972-7.165l14.742-111.5c1.493-7.823-7.035-14.202-13.855-10.045l-34.339 20.932c-21.155-22.425-46.207-40.498-73.709-53.53-32.589-15.443-68.483-23.737-105.27-23.737-61.015 0-117.474 22.457-160.915 60.05-43.403 37.561-73.72 90.238-82.495 150.716-2.33 16.374 9.055 31.537 25.43 33.867 16.374 2.33 31.537-9.055 33.867-25.43 6.634-45.722 29.543-85.538 62.339-113.919 32.759-28.348 75.477-45.284 121.774-45.284z" fill="#9da5be"/><path d="m431.93 282.798c-6.634 45.722-29.543 85.538-62.339 113.919-32.759 28.349-75.478 45.284-121.774 45.284-27.999 0-55.18-6.246-79.724-17.877-16.902-8.01-32.619-18.609-46.556-31.514l34.128-20.803c6.433-3.917 5.349-14.077-2.088-16.741l-106.219-38.11c-5.402-2.023-11.205 1.393-11.972 7.165l-14.742 111.5c-1.493 7.823 7.035 14.202 13.855 10.045l34.339-20.932c21.155 22.425 46.207 40.497 73.709 53.53 32.59 15.443 68.484 23.737 105.271 23.737 61.015 0 117.474-22.457 160.915-60.05 43.404-37.56 73.72-90.238 82.495-150.716 2.33-16.374-9.055-31.537-25.43-33.867s-31.538 9.056-33.868 25.43z" fill="#ffa76b"/></g><g><path d="m44.795 264.533c1.91.271 3.816.406 5.711.406 8.588 0 16.912-2.761 23.902-8.01 8.533-6.407 14.06-15.753 15.559-26.29 3.973-27.382 14.479-53.747 30.381-76.243 3.188-4.51 2.117-10.75-2.393-13.938-4.511-3.188-10.751-2.116-13.938 2.394-17.715 25.061-29.418 54.424-33.847 84.943-.75 5.275-3.51 9.942-7.771 13.141s-9.511 4.546-14.787 3.797c-10.889-1.549-18.487-11.669-16.942-22.531 8.143-56.122 36.25-107.472 79.143-144.59 42.931-37.152 97.755-57.612 154.371-57.612 34.628 0 69.549 7.875 100.989 22.774 26.724 12.664 50.517 29.942 70.717 51.355 3.242 3.437 8.445 4.135 12.479 1.676l32.992-20.111-14.482 109.53-103.992-37.312 32.782-19.982c2.676-1.631 4.433-4.423 4.745-7.542s-.856-6.204-3.156-8.333c-14.621-13.539-31.129-24.713-49.068-33.213-26.01-12.326-55.058-18.842-84.006-18.842-30.859 0-61.623 7.352-88.964 21.261-4.922 2.504-6.883 8.525-4.379 13.447s8.525 6.883 13.447 4.379c24.546-12.486 52.173-19.087 79.896-19.087 26.004 0 52.092 5.849 75.442 16.914 12.073 5.721 23.426 12.793 33.886 21.1l-22.377 13.64c-6.261 3.812-9.68 10.801-8.922 18.239.773 7.592 5.693 13.898 12.834 16.456l106.164 38.091c5.441 2.011 11.386 1.471 16.324-1.491 4.949-2.968 8.227-7.98 8.994-13.757l14.711-111.269c1.291-7.466-1.91-15.063-8.215-19.433-6.312-4.374-14.254-4.639-20.728-.694l-27.532 16.783c-20.652-20.553-44.512-37.313-71.029-49.878-34.098-16.159-71.981-24.701-109.552-24.701-61.422 0-120.894 22.192-167.459 62.488-46.526 40.263-77.014 95.964-85.852 156.869-3.102 21.807 12.115 42.073 33.922 45.176z"/><path d="m467.206 247.468c-21.813-3.107-42.074 12.114-45.172 33.894-6.072 41.849-27.021 80.131-58.987 107.793-31.928 27.629-72.85 42.845-115.23 42.845-26.004 0-52.092-5.849-75.442-16.914-12.074-5.721-23.427-12.793-33.886-21.099l22.377-13.64c6.261-3.812 9.68-10.801 8.922-18.239-.773-7.592-5.693-13.898-12.834-16.456l-106.163-38.09c-5.442-2.012-11.387-1.47-16.324 1.491-4.949 2.968-8.227 7.98-8.994 13.757l-14.712 111.268c-1.291 7.466 1.91 15.063 8.215 19.433 6.313 4.374 14.255 4.64 20.728.694l27.532-16.783c20.652 20.553 44.512 37.313 71.029 49.878 34.099 16.159 71.982 24.701 109.553 24.701 61.423 0 120.894-22.192 167.458-62.488 46.526-40.263 77.015-95.963 85.852-156.869 3.102-21.808-12.115-42.074-33.922-45.176zm14.125 42.331c-8.143 56.122-36.25 107.472-79.143 144.59-42.93 37.151-97.753 57.611-154.371 57.611-34.628 0-69.549-7.875-100.989-22.774-26.724-12.664-50.517-29.942-70.717-51.355-1.945-2.062-4.596-3.138-7.278-3.138-1.787 0-3.588.479-5.201 1.462l-32.992 20.111 14.482-109.53 103.992 37.312-32.782 19.983c-2.676 1.631-4.433 4.423-4.745 7.542s.856 6.204 3.156 8.333c14.62 13.538 31.128 24.712 49.068 33.213 26.01 12.326 55.058 18.841 84.006 18.841 47.185 0 92.756-16.948 128.318-47.722 35.6-30.807 58.93-73.44 65.696-120.072 1.549-10.889 11.672-18.483 22.558-16.938 10.889 1.55 18.487 11.67 16.942 22.531z"/><path d="m142.403 105.285c-5.523 0-9.996 4.477-9.996 10s4.48 10 10.003 10 10-4.477 10-10-4.477-10-10-10z"/></g></g></svg>