<svg id="Capa_1" enable-background="new 0 0 512 512" height="512" viewBox="0 0 512 512" width="512" xmlns="http://www.w3.org/2000/svg"><g><g><path d="m467.623 193.964v-114.153c0-6.889-2.844-13.471-7.861-18.192l-47.636-44.83c-4.634-4.361-10.757-6.789-17.121-6.789h-325.646c-13.797 0-24.982 11.185-24.982 24.981v442.037c0 13.797 11.185 24.982 24.982 24.982h373.282c13.797 0 24.981-11.185 24.981-24.982v-192.641" fill="#c193dc"/><g><path d="m110.752 241.78h290.497v260.22h-290.497z" fill="#faf7f5"/><g><path d="m130.752 10h56.315v104.684h-56.315z" fill="#faf7f5"/><path d="m187.067 10h57.637v104.684h-57.637z" fill="#ccf5fc"/><path d="m244.704 10h136.545v104.684h-136.545z" fill="#faf7f5"/></g></g><path d="m305.436 502h-98.872c-9.377 0-16.978-7.601-16.978-16.978v-99.161c0-9.377 7.601-16.978 16.978-16.978h98.872c9.377 0 16.978 7.601 16.978 16.978v99.161c0 9.377-7.601 16.978-16.978 16.978z" fill="#ffee80"/></g><g><g><path d="m477.623 79.812c0-9.606-4.013-18.892-11.008-25.475l-47.636-44.83c-6.514-6.131-15.028-9.507-23.974-9.507h-325.646c-19.289 0-34.982 15.693-34.982 34.981v442.037c0 19.289 15.693 34.982 34.982 34.982h373.281c19.289 0 34.982-15.693 34.982-34.981v-192.642c0-5.523-4.477-10-10-10-5.522 0-10 4.477-10 10v192.642c0 8.261-6.721 14.981-14.982 14.981h-31.393v-250.22c0-5.523-4.477-10-10-10h-290.495c-5.522 0-10 4.477-10 10v250.22h-31.393c-8.262 0-14.982-6.721-14.982-14.981v-442.038c0-8.26 6.721-14.981 14.982-14.981h51.393v94.684c0 5.523 4.478 10 10 10h250.496c5.523 0 10-4.477 10-10v-94.684h3.757c3.831 0 7.477 1.446 10.268 4.071l47.637 44.831c2.995 2.819 4.714 6.796 4.714 10.91v114.153c0 5.523 4.478 10 10 10 5.523 0 10-4.477 10-10v-114.153zm-271.059 412.188c-3.848 0-6.978-3.13-6.978-6.978v-99.161c0-3.848 3.13-6.979 6.978-6.979h98.873c3.848 0 6.978 3.13 6.978 6.979v99.161c0 3.848-3.13 6.978-6.978 6.978zm85.387-133.118h-71.902v-18.287c0-19.781 16.128-35.875 35.951-35.875s35.951 16.093 35.951 35.875zm-171.199-107.102h270.496v240.22h-59.749c.597-2.227.915-4.566.915-6.978v-99.161c0-12.63-8.725-23.261-20.463-26.183v-19.082c0-30.809-25.1-55.875-55.951-55.875s-55.951 25.065-55.951 55.875v19.082c-11.738 2.922-20.463 13.552-20.463 26.183v99.161c0 2.412.319 4.751.915 6.978h-59.749zm20-231.78h36.314v84.684h-36.314zm56.314 0h37.638v84.684h-37.638zm174.182 84.684h-116.544v-84.684h116.544z"/><path d="m475.94 233.8c-2.432-3.549-6.9-5.248-11.063-4.055-4.023 1.153-6.946 4.776-7.234 8.953-.282 4.097 2.117 8.076 5.854 9.762 3.863 1.743 8.509.82 11.413-2.266 3.145-3.344 3.577-8.576 1.03-12.394z"/><path d="m267.699 418.674h-23.398c-5.522 0-10 4.477-10 10s4.478 10 10 10h1.699v6.686c0 5.523 4.477 10 10 10 5.522 0 10-4.477 10-10v-6.686h1.699c5.523 0 10-4.477 10-10s-4.477-10-10-10z"/></g></g></g></svg>