<?xml version="1.0" standalone="no"?>
<!DOCTYPE svg PUBLIC "-//W3C//DTD SVG 20010904//EN"
 "http://www.w3.org/TR/2001/REC-SVG-20010904/DTD/svg10.dtd">
<svg version="1.0" xmlns="http://www.w3.org/2000/svg"
 width="512.000000pt" height="512.000000pt" viewBox="0 0 512.000000 512.000000"
 preserveAspectRatio="xMidYMid meet">
<metadata>
Created by potrace 1.11, written by Peter Selinger 2001-2013
</metadata>
<g transform="translate(0.000000,512.000000) scale(0.100000,-0.100000)"
fill="#000000" stroke="none">
<path d="M2530 5113 c-23 -9 -61 -45 -75 -73 -32 -65 -99 -373 -110 -510 -5
-62 -15 -101 -35 -145 -47 -100 -62 -193 -51 -320 2 -16 -12 -70 -30 -120 -27
-76 -33 -108 -37 -205 -3 -83 -10 -125 -22 -150 -10 -20 -24 -63 -30 -97 -10
-52 -16 -62 -36 -66 -20 -3 -26 1 -31 22 -9 38 -59 128 -103 186 -136 182
-352 315 -525 325 -77 5 -92 0 -139 -44 -76 -72 -144 -224 -164 -364 -11 -85
-6 -245 12 -325 18 -78 83 -224 111 -247 12 -10 6 -22 -44 -79 -180 -206 -340
-475 -415 -701 -42 -127 -47 -152 -51 -257 -6 -128 23 -212 97 -284 40 -38
133 -89 163 -89 8 0 15 -6 16 -12 4 -61 19 -235 24 -293 5 -50 10 -121 20
-250 3 -38 7 -90 10 -115 2 -25 7 -81 10 -125 19 -263 31 -320 90 -420 115
-195 364 -309 750 -342 114 -10 570 -9 780 1 216 11 469 14 530 7 72 -9 216 6
293 29 178 54 306 161 384 323 29 60 73 186 83 237 3 14 7 36 10 50 13 64 24
145 30 220 3 36 7 90 10 120 2 30 7 105 10 165 13 227 15 261 21 315 8 76 13
90 32 90 65 0 191 102 233 187 43 87 28 243 -47 471 -78 239 -221 483 -385
660 l-49 53 30 45 c90 130 125 267 116 459 -8 179 -52 318 -136 424 -57 72
-78 83 -153 82 -112 -1 -247 -55 -367 -144 -116 -87 -236 -235 -275 -339 -28
-77 -57 -62 -62 32 -4 74 -28 162 -62 235 -24 53 -27 68 -21 115 20 149 -12
312 -81 410 -9 14 -20 55 -24 95 -21 211 -105 627 -140 695 -8 16 -26 37 -39
45 -26 17 -102 28 -126 18z"/>
<path d="M3680 4712 c-125 -66 -67 -264 75 -257 85 4 135 55 138 139 3 105
-114 170 -213 118z"/>
<path d="M552 4697 c-6 -7 -30 -67 -53 -132 -23 -66 -47 -126 -53 -132 -6 -7
-61 -35 -121 -62 -61 -28 -116 -59 -123 -70 -12 -18 -11 -23 13 -45 15 -14 69
-42 121 -62 52 -21 100 -44 108 -53 7 -9 25 -50 40 -91 54 -156 62 -173 78
-184 27 -17 44 8 84 124 52 151 53 153 131 186 88 37 171 84 177 101 9 22 -40
56 -145 102 -55 25 -105 53 -110 63 -6 11 -28 69 -50 130 -21 61 -44 117 -50
125 -14 17 -33 17 -47 0z"/>
<path d="M1618 4516 c-25 -19 -39 -62 -29 -89 12 -30 31 -46 68 -53 71 -14
120 92 63 137 -29 21 -77 24 -102 5z"/>
<path d="M4590 3978 c-18 -51 -38 -99 -44 -107 -10 -13 -128 -71 -145 -71 -16
0 -41 -37 -36 -53 6 -14 132 -77 155 -77 16 0 38 -42 68 -128 16 -46 34 -88
40 -94 17 -17 40 7 56 61 7 26 23 69 35 97 20 47 26 51 111 92 115 54 117 66
15 115 -41 21 -79 37 -84 37 -16 0 -31 27 -64 121 -26 73 -38 95 -54 97 -17 3
-25 -11 -53 -90z"/>
</g>
</svg>
