<svg id="Layer_1" enable-background="new 0 0 512 512" height="512" viewBox="0 0 512 512" width="512" xmlns="http://www.w3.org/2000/svg"><g><circle cx="256" cy="476" r="10"/><path d="m502 221.002h-96v-30c0-5.523-4.477-10-10-10h-43.126l-37.387-112.161c-1.361-4.083-5.183-6.838-9.487-6.838h-100c-4.346 0-8.195 2.807-9.522 6.946l-35.942 112.053h-44.536c-5.523 0-10 4.477-10 10v30h-96c-5.523 0-10 4.477-10 10v244.998c0 2.63 1.07 5.21 2.93 7.07s4.44 2.93 7.07 2.93h201c5.51 0 10-4.49 10-10s-4.49-10-10-10h-191v-20h472v20h-191c-5.51 0-10 4.49-10 10s4.49 10 10 10h201c2.63 0 5.21-1.07 7.07-2.93s2.93-4.44 2.93-7.07v-244.998c0-5.523-4.477-10-10-10zm-116-20v20h-19.792l-6.665-20zm-172.706-118.999h85.498l46.333 138.999h-39.125v-30c0-5.523-4.477-10-10-10h-30v-20h10c5.523 0 10-4.477 10-10v-40c0-5.523-4.477-10-10-10h-40c-5.523 0-10 4.477-10 10v40c0 5.523 4.477 10 10 10h10v20h-30c-5.523 0-10 4.477-10 10v30h-37.291zm72.706 118.999v20h-60v-20zm-40-60v-20h20v20zm-120 60h28.121l-6.415 20h-21.706zm-106 40h472v20h-472zm0 184.998v-144.999h472v144.999z"/><path d="m464.817 336.693c0-15.545-13.144-28.192-29.3-28.192h-18.677c-.004 0-.008 0-.011 0s-.007 0-.011 0c-5.523 0-10 4.477-10 10v70c0 5.523 4.477 10 10 10s10-4.477 10-10v-16.583l20.507 23.205c1.976 2.236 4.73 3.378 7.497 3.378 2.353 0 4.716-.826 6.618-2.507 4.138-3.657 4.528-9.976.871-14.115l-16.581-18.763c11.134-3.998 19.087-14.332 19.087-26.423zm-29.3-8.192c5.042 0 9.3 3.751 9.3 8.192 0 4.44-4.259 8.192-9.3 8.192-2.04 0-5.342.012-8.603.027-.015-3.133-.027-6.277-.027-8.219 0-1.663-.007-4.901-.017-8.192z"/><path d="m377.599 308.501c-5.523 0-10 4.477-10 10v70c0 5.523 4.477 10 10 10s10-4.477 10-10v-70c0-5.523-4.477-10-10-10z"/><path d="m89.183 308.501c-24.813 0-45 20.187-45 45s20.187 45 45 45 45-20.187 45-45-20.187-45-45-45zm0 70c-13.785 0-25-11.215-25-25s11.215-25 25-25 25 11.215 25 25-11.215 25-25 25z"/><path d="m323.958 315.968c-.034-.092-.07-.183-.107-.273-1.79-4.372-5.994-7.194-10.714-7.194-.003 0-.007 0-.011 0-4.725.004-8.929 2.836-10.712 7.214-.031.075-.06.151-.089.228l-26.158 69.014c-1.957 5.164.643 10.937 5.807 12.895 5.163 1.955 10.938-.643 12.895-5.807l4.068-10.732h28.2l4.02 10.704c1.506 4.012 5.316 6.487 9.363 6.487 1.168 0 2.356-.207 3.514-.642 5.17-1.941 7.788-7.707 5.846-12.877zm-17.442 45.345 6.584-17.371 6.524 17.371z"/><path d="m211.903 308.502c-5.522.053-9.956 4.574-9.903 10.096l.373 38.551-30.488-44.195c-2.485-3.603-7.024-5.17-11.205-3.87-4.179 1.302-7.026 5.17-7.026 9.548v69.869c0 5.523 4.477 10 10 10s10-4.477 10-10v-37.762l28.963 41.986c2.888 4.175 7.724 5.946 12.326 4.51 4.684-1.462 7.71-5.816 7.71-11.189l-.653-67.642c-.054-5.522-4.615-9.971-10.097-9.902z"/><path d="m364.671 66.306c1.135 0 2.29-.195 3.419-.606l55.78-20.3c5.19-1.889 7.866-7.627 5.977-12.817-1.889-5.189-7.626-7.867-12.817-5.977l-55.78 20.3c-5.19 1.889-7.866 7.627-5.977 12.817 1.478 4.061 5.312 6.583 9.398 6.583z"/><path d="m144.13 125.936-56 20.38c-5.19 1.889-7.866 7.627-5.977 12.817 1.478 4.061 5.313 6.583 9.398 6.583 1.135 0 2.29-.195 3.419-.606l56-20.38c5.19-1.889 7.866-7.627 5.977-12.817s-7.626-7.867-12.817-5.977z"/><path d="m361.03 144.729 56 20.38c1.129.411 2.284.606 3.419.606 4.085 0 7.92-2.522 9.398-6.583 1.889-5.19-.787-10.928-5.977-12.817l-56-20.38c-5.19-1.89-10.929.788-12.817 5.977-1.888 5.191.787 10.929 5.977 12.817z"/><path d="m88.13 45.4 55.78 20.3c1.129.411 2.284.606 3.419.606 4.085 0 7.92-2.522 9.398-6.583 1.889-5.19-.787-10.928-5.977-12.817l-55.78-20.3c-5.191-1.89-10.929.788-12.817 5.977-1.889 5.19.787 10.928 5.977 12.817z"/><path d="m361.5 95.853c0 5.523 4.477 10 10 10h59.5c5.523 0 10-4.477 10-10s-4.477-10-10-10h-59.5c-5.523 0-10 4.477-10 10z"/><path d="m81 105.853h59.5c5.523 0 10-4.477 10-10s-4.477-10-10-10h-59.5c-5.523 0-10 4.477-10 10s4.477 10 10 10z"/></g></svg>